<mxfile host="app.diagrams.net" agent="Mozilla/5.0 (Windows NT 10.0; Win64; x64) AppleWebKit/537.36 (KHTML, like Gecko) Chrome/139.0.0.0 Safari/537.36" version="28.1.0">
  <diagram name="Page-1" id="lNdu_sH9OAb6CweIbx1Z">
    <mxGraphModel dx="1358" dy="1827" grid="1" gridSize="10" guides="1" tooltips="1" connect="1" arrows="1" fold="1" page="1" pageScale="1" pageWidth="850" pageHeight="1100" math="0" shadow="0">
      <root>
        <mxCell id="0" />
        <mxCell id="1" parent="0" />
        <mxCell id="_46d_c3dGUkE7WiwYYym-16" value="" style="rounded=0;whiteSpace=wrap;html=1;rotation=90;" parent="1" vertex="1">
          <mxGeometry x="90" y="230" width="300" height="160" as="geometry" />
        </mxCell>
        <mxCell id="_46d_c3dGUkE7WiwYYym-18" value="RED-SCR&lt;div&gt;172.16.120.1&lt;/div&gt;&lt;div&gt;USER vyos&lt;/div&gt;&lt;div&gt;PASS password&lt;/div&gt;&lt;div&gt;&lt;br&gt;&lt;/div&gt;" style="text;html=1;align=center;verticalAlign=middle;whiteSpace=wrap;rounded=0;" parent="1" vertex="1">
          <mxGeometry x="210" y="270" width="60" height="30" as="geometry" />
        </mxCell>
        <mxCell id="_46d_c3dGUkE7WiwYYym-19" value="" style="whiteSpace=wrap;html=1;aspect=fixed;" parent="1" vertex="1">
          <mxGeometry x="280" y="260" width="40" height="40" as="geometry" />
        </mxCell>
        <mxCell id="_46d_c3dGUkE7WiwYYym-20" value="" style="whiteSpace=wrap;html=1;aspect=fixed;" parent="1" vertex="1">
          <mxGeometry x="280" y="160" width="40" height="40" as="geometry" />
        </mxCell>
        <mxCell id="_46d_c3dGUkE7WiwYYym-21" value="E2" style="whiteSpace=wrap;html=1;aspect=fixed;" parent="1" vertex="1">
          <mxGeometry x="280" y="420" width="40" height="40" as="geometry" />
        </mxCell>
        <mxCell id="_46d_c3dGUkE7WiwYYym-22" value="" style="whiteSpace=wrap;html=1;aspect=fixed;" parent="1" vertex="1">
          <mxGeometry x="160" y="420" width="40" height="40" as="geometry" />
        </mxCell>
        <mxCell id="_46d_c3dGUkE7WiwYYym-23" value="" style="whiteSpace=wrap;html=1;aspect=fixed;" parent="1" vertex="1">
          <mxGeometry x="220" y="420" width="40" height="40" as="geometry" />
        </mxCell>
        <mxCell id="_46d_c3dGUkE7WiwYYym-24" value="E0" style="text;html=1;align=center;verticalAlign=middle;whiteSpace=wrap;rounded=0;" parent="1" vertex="1">
          <mxGeometry x="270" y="165" width="60" height="30" as="geometry" />
        </mxCell>
        <mxCell id="_46d_c3dGUkE7WiwYYym-25" value="E1" style="text;html=1;align=center;verticalAlign=middle;whiteSpace=wrap;rounded=0;" parent="1" vertex="1">
          <mxGeometry x="270" y="265" width="60" height="30" as="geometry" />
        </mxCell>
        <mxCell id="_46d_c3dGUkE7WiwYYym-28" value="" style="endArrow=none;html=1;rounded=0;" parent="1" edge="1">
          <mxGeometry width="50" height="50" relative="1" as="geometry">
            <mxPoint x="320" y="440" as="sourcePoint" />
            <mxPoint x="520" y="440" as="targetPoint" />
          </mxGeometry>
        </mxCell>
        <mxCell id="_46d_c3dGUkE7WiwYYym-29" value="" style="endArrow=none;html=1;rounded=0;" parent="1" edge="1">
          <mxGeometry width="50" height="50" relative="1" as="geometry">
            <mxPoint x="520" y="480" as="sourcePoint" />
            <mxPoint x="520" y="440" as="targetPoint" />
          </mxGeometry>
        </mxCell>
        <mxCell id="_46d_c3dGUkE7WiwYYym-30" value="" style="shape=link;html=1;rounded=0;" parent="1" edge="1">
          <mxGeometry width="100" relative="1" as="geometry">
            <mxPoint x="440" y="480" as="sourcePoint" />
            <mxPoint x="600" y="480" as="targetPoint" />
          </mxGeometry>
        </mxCell>
        <mxCell id="_46d_c3dGUkE7WiwYYym-31" value="" style="endArrow=none;html=1;rounded=0;" parent="1" edge="1">
          <mxGeometry width="50" height="50" relative="1" as="geometry">
            <mxPoint x="320" y="180" as="sourcePoint" />
            <mxPoint x="520" y="180" as="targetPoint" />
          </mxGeometry>
        </mxCell>
        <mxCell id="_46d_c3dGUkE7WiwYYym-34" value="172.16.120.1" style="text;html=1;align=center;verticalAlign=middle;whiteSpace=wrap;rounded=0;" parent="1" vertex="1">
          <mxGeometry x="330" y="160" width="55" height="20" as="geometry" />
        </mxCell>
        <mxCell id="_46d_c3dGUkE7WiwYYym-35" value="INTERNET" style="text;html=1;align=center;verticalAlign=middle;whiteSpace=wrap;rounded=0;" parent="1" vertex="1">
          <mxGeometry x="330" y="180" width="55" height="20" as="geometry" />
        </mxCell>
        <mxCell id="_46d_c3dGUkE7WiwYYym-36" value="172.16.120.10" style="text;html=1;align=center;verticalAlign=middle;whiteSpace=wrap;rounded=0;" parent="1" vertex="1">
          <mxGeometry x="330" y="260" width="60" height="20" as="geometry" />
        </mxCell>
        <mxCell id="_46d_c3dGUkE7WiwYYym-37" value="REDNET" style="text;html=1;align=center;verticalAlign=middle;whiteSpace=wrap;rounded=0;" parent="1" vertex="1">
          <mxGeometry x="320" y="280" width="60" height="20" as="geometry" />
        </mxCell>
        <mxCell id="qMjwH2dMVCEwPad2tPBn-1" value="172.16.101.30" style="text;html=1;align=center;verticalAlign=middle;whiteSpace=wrap;rounded=0;" vertex="1" parent="1">
          <mxGeometry x="342" y="420" width="48" height="20" as="geometry" />
        </mxCell>
        <mxCell id="qMjwH2dMVCEwPad2tPBn-2" value="DMZ" style="text;html=1;align=center;verticalAlign=middle;whiteSpace=wrap;rounded=0;" vertex="1" parent="1">
          <mxGeometry x="326" y="440" width="48" height="20" as="geometry" />
        </mxCell>
        <mxCell id="qMjwH2dMVCEwPad2tPBn-3" value="LO" style="text;html=1;align=center;verticalAlign=middle;whiteSpace=wrap;rounded=0;" vertex="1" parent="1">
          <mxGeometry x="210" y="425" width="60" height="30" as="geometry" />
        </mxCell>
        <mxCell id="qMjwH2dMVCEwPad2tPBn-4" value="" style="endArrow=classic;html=1;rounded=0;exitX=0.5;exitY=1;exitDx=0;exitDy=0;" edge="1" parent="1" source="_46d_c3dGUkE7WiwYYym-23">
          <mxGeometry width="50" height="50" relative="1" as="geometry">
            <mxPoint x="190" y="580" as="sourcePoint" />
            <mxPoint x="240" y="530" as="targetPoint" />
          </mxGeometry>
        </mxCell>
        <mxCell id="qMjwH2dMVCEwPad2tPBn-5" value="127.0.0.1/29" style="text;html=1;align=center;verticalAlign=middle;whiteSpace=wrap;rounded=0;rotation=90;" vertex="1" parent="1">
          <mxGeometry x="220" y="480" width="60" height="30" as="geometry" />
        </mxCell>
        <mxCell id="qMjwH2dMVCEwPad2tPBn-7" value="" style="endArrow=none;html=1;rounded=0;" edge="1" parent="1">
          <mxGeometry width="50" height="50" relative="1" as="geometry">
            <mxPoint x="480" y="520" as="sourcePoint" />
            <mxPoint x="480" y="480" as="targetPoint" />
          </mxGeometry>
        </mxCell>
        <mxCell id="qMjwH2dMVCEwPad2tPBn-8" value="" style="ellipse;whiteSpace=wrap;html=1;aspect=fixed;" vertex="1" parent="1">
          <mxGeometry x="460" y="520" width="40" height="40" as="geometry" />
        </mxCell>
        <mxCell id="qMjwH2dMVCEwPad2tPBn-9" value=".2" style="text;html=1;align=center;verticalAlign=middle;whiteSpace=wrap;rounded=0;" vertex="1" parent="1">
          <mxGeometry x="450" y="525" width="60" height="30" as="geometry" />
        </mxCell>
        <mxCell id="qMjwH2dMVCEwPad2tPBn-10" value="Ports: 22&lt;div&gt;Linux&lt;/div&gt;" style="text;html=1;align=center;verticalAlign=middle;whiteSpace=wrap;rounded=0;" vertex="1" parent="1">
          <mxGeometry x="450" y="560" width="60" height="30" as="geometry" />
        </mxCell>
        <mxCell id="qMjwH2dMVCEwPad2tPBn-11" value="" style="rounded=0;whiteSpace=wrap;html=1;rotation=90;" vertex="1" parent="1">
          <mxGeometry x="520.16" y="134.84" width="91.25" height="90.3" as="geometry" />
        </mxCell>
        <mxCell id="qMjwH2dMVCEwPad2tPBn-12" value="RED-INFRA" style="text;html=1;align=center;verticalAlign=middle;whiteSpace=wrap;rounded=0;" vertex="1" parent="1">
          <mxGeometry x="90" y="-70" width="70" height="30" as="geometry" />
        </mxCell>
        <mxCell id="qMjwH2dMVCEwPad2tPBn-13" value="" style="rounded=0;whiteSpace=wrap;html=1;rotation=90;" vertex="1" parent="1">
          <mxGeometry x="520.31" y="234.68" width="91.25" height="90.62" as="geometry" />
        </mxCell>
        <mxCell id="qMjwH2dMVCEwPad2tPBn-14" value="&lt;font style=&quot;font-size: 10px;&quot;&gt;RED-INFRA&lt;/font&gt;" style="text;html=1;align=center;verticalAlign=middle;whiteSpace=wrap;rounded=0;" vertex="1" parent="1">
          <mxGeometry x="531.26" y="139.37" width="60" height="30" as="geometry" />
        </mxCell>
        <mxCell id="qMjwH2dMVCEwPad2tPBn-15" value="172.16.120.2" style="text;html=1;align=center;verticalAlign=middle;whiteSpace=wrap;rounded=0;" vertex="1" parent="1">
          <mxGeometry x="450" y="160" width="55" height="20" as="geometry" />
        </mxCell>
        <mxCell id="qMjwH2dMVCEwPad2tPBn-16" value="&lt;font style=&quot;font-size: 10px;&quot;&gt;RED-IPS&lt;/font&gt;" style="text;html=1;align=center;verticalAlign=middle;whiteSpace=wrap;rounded=0;" vertex="1" parent="1">
          <mxGeometry x="531.26" y="240" width="60" height="30" as="geometry" />
        </mxCell>
        <mxCell id="qMjwH2dMVCEwPad2tPBn-17" value="172.16.120.9" style="text;html=1;align=center;verticalAlign=middle;whiteSpace=wrap;rounded=0;" vertex="1" parent="1">
          <mxGeometry x="450" y="260" width="60" height="20" as="geometry" />
        </mxCell>
        <mxCell id="qMjwH2dMVCEwPad2tPBn-18" value="" style="whiteSpace=wrap;html=1;aspect=fixed;" vertex="1" parent="1">
          <mxGeometry x="520" y="172.5" width="15" height="15" as="geometry" />
        </mxCell>
        <mxCell id="qMjwH2dMVCEwPad2tPBn-19" value="" style="whiteSpace=wrap;html=1;aspect=fixed;" vertex="1" parent="1">
          <mxGeometry x="590" y="172.5" width="15" height="15" as="geometry" />
        </mxCell>
        <mxCell id="qMjwH2dMVCEwPad2tPBn-20" value="" style="whiteSpace=wrap;html=1;aspect=fixed;" vertex="1" parent="1">
          <mxGeometry x="590" y="272.49" width="15" height="15" as="geometry" />
        </mxCell>
        <mxCell id="qMjwH2dMVCEwPad2tPBn-21" value="" style="whiteSpace=wrap;html=1;aspect=fixed;" vertex="1" parent="1">
          <mxGeometry x="520" y="272.49" width="15" height="15" as="geometry" />
        </mxCell>
        <mxCell id="qMjwH2dMVCEwPad2tPBn-23" value="" style="endArrow=none;html=1;rounded=0;" edge="1" parent="1">
          <mxGeometry width="50" height="50" relative="1" as="geometry">
            <mxPoint x="610" y="280" as="sourcePoint" />
            <mxPoint x="760" y="280" as="targetPoint" />
          </mxGeometry>
        </mxCell>
        <mxCell id="qMjwH2dMVCEwPad2tPBn-24" value="Internet" style="text;html=1;align=center;verticalAlign=middle;whiteSpace=wrap;rounded=0;" vertex="1" parent="1">
          <mxGeometry x="605" y="272.8" width="60" height="30" as="geometry" />
        </mxCell>
        <mxCell id="qMjwH2dMVCEwPad2tPBn-25" value="&lt;font style=&quot;font-size: 9px;&quot;&gt;172.16.120.18&lt;/font&gt;" style="text;html=1;align=center;verticalAlign=middle;whiteSpace=wrap;rounded=0;" vertex="1" parent="1">
          <mxGeometry x="611.56" y="255" width="60" height="30" as="geometry" />
        </mxCell>
        <mxCell id="qMjwH2dMVCEwPad2tPBn-26" value="" style="whiteSpace=wrap;html=1;aspect=fixed;" vertex="1" parent="1">
          <mxGeometry x="520.31" y="310.3" width="15" height="15" as="geometry" />
        </mxCell>
        <mxCell id="qMjwH2dMVCEwPad2tPBn-27" value="E1" style="text;html=1;align=center;verticalAlign=middle;whiteSpace=wrap;rounded=0;" vertex="1" parent="1">
          <mxGeometry x="567.5" y="264.99" width="60" height="30" as="geometry" />
        </mxCell>
        <mxCell id="qMjwH2dMVCEwPad2tPBn-30" value="" style="endArrow=none;html=1;rounded=0;exitX=0.4;exitY=-0.006;exitDx=0;exitDy=0;exitPerimeter=0;" edge="1" parent="1" source="_46d_c3dGUkE7WiwYYym-16">
          <mxGeometry width="50" height="50" relative="1" as="geometry">
            <mxPoint x="321" y="280" as="sourcePoint" />
            <mxPoint x="520" y="279.9913098148795" as="targetPoint" />
          </mxGeometry>
        </mxCell>
        <mxCell id="qMjwH2dMVCEwPad2tPBn-31" value="L0" style="text;html=1;align=center;verticalAlign=middle;whiteSpace=wrap;rounded=0;" vertex="1" parent="1">
          <mxGeometry x="497.5" y="302.8" width="60" height="30" as="geometry" />
        </mxCell>
        <mxCell id="qMjwH2dMVCEwPad2tPBn-34" value="" style="endArrow=classic;html=1;rounded=0;" edge="1" parent="1">
          <mxGeometry width="50" height="50" relative="1" as="geometry">
            <mxPoint x="520" y="324.73" as="sourcePoint" />
            <mxPoint x="450" y="325" as="targetPoint" />
          </mxGeometry>
        </mxCell>
        <mxCell id="qMjwH2dMVCEwPad2tPBn-35" value="127.0.0.1" style="text;html=1;align=center;verticalAlign=middle;whiteSpace=wrap;rounded=0;" vertex="1" parent="1">
          <mxGeometry x="460.31" y="300" width="60" height="30" as="geometry" />
        </mxCell>
        <mxCell id="qMjwH2dMVCEwPad2tPBn-38" value="E0" style="text;html=1;align=center;verticalAlign=middle;whiteSpace=wrap;rounded=0;" vertex="1" parent="1">
          <mxGeometry x="497.5" y="265" width="60" height="30" as="geometry" />
        </mxCell>
        <mxCell id="qMjwH2dMVCEwPad2tPBn-39" value="" style="rounded=0;whiteSpace=wrap;html=1;rotation=90;" vertex="1" parent="1">
          <mxGeometry x="759.375" y="235.295" width="91.25" height="90.3" as="geometry" />
        </mxCell>
        <mxCell id="qMjwH2dMVCEwPad2tPBn-40" value="&lt;font style=&quot;font-size: 10px;&quot;&gt;RED-POP&lt;/font&gt;" style="text;html=1;align=center;verticalAlign=middle;whiteSpace=wrap;rounded=0;" vertex="1" parent="1">
          <mxGeometry x="775" y="240" width="60" height="30" as="geometry" />
        </mxCell>
        <mxCell id="qMjwH2dMVCEwPad2tPBn-41" value="" style="whiteSpace=wrap;html=1;aspect=fixed;" vertex="1" parent="1">
          <mxGeometry x="630" y="50" width="15" height="15" as="geometry" />
        </mxCell>
        <mxCell id="qMjwH2dMVCEwPad2tPBn-43" value="" style="whiteSpace=wrap;html=1;aspect=fixed;" vertex="1" parent="1">
          <mxGeometry x="759" y="272.8" width="15" height="15" as="geometry" />
        </mxCell>
        <mxCell id="qMjwH2dMVCEwPad2tPBn-44" value="" style="whiteSpace=wrap;html=1;aspect=fixed;" vertex="1" parent="1">
          <mxGeometry x="835" y="310.3" width="15" height="15" as="geometry" />
        </mxCell>
        <mxCell id="qMjwH2dMVCEwPad2tPBn-45" value="&lt;font style=&quot;font-size: 9px;&quot;&gt;172.16.120.17&lt;/font&gt;" style="text;html=1;align=center;verticalAlign=middle;whiteSpace=wrap;rounded=0;" vertex="1" parent="1">
          <mxGeometry x="699" y="257.8" width="60" height="30" as="geometry" />
        </mxCell>
        <mxCell id="qMjwH2dMVCEwPad2tPBn-46" value="E0" style="text;html=1;align=center;verticalAlign=middle;whiteSpace=wrap;rounded=0;" vertex="1" parent="1">
          <mxGeometry x="736.5" y="265.3" width="60" height="30" as="geometry" />
        </mxCell>
        <mxCell id="qMjwH2dMVCEwPad2tPBn-47" value="E1" style="text;html=1;align=center;verticalAlign=middle;whiteSpace=wrap;rounded=0;" vertex="1" parent="1">
          <mxGeometry x="812.5" y="302.8" width="60" height="30" as="geometry" />
        </mxCell>
        <mxCell id="qMjwH2dMVCEwPad2tPBn-48" value="" style="whiteSpace=wrap;html=1;aspect=fixed;" vertex="1" parent="1">
          <mxGeometry x="834" y="235.3" width="15" height="15" as="geometry" />
        </mxCell>
        <mxCell id="qMjwH2dMVCEwPad2tPBn-49" value="E2" style="text;html=1;align=center;verticalAlign=middle;whiteSpace=wrap;rounded=0;" vertex="1" parent="1">
          <mxGeometry x="811.5" y="227.8" width="60" height="30" as="geometry" />
        </mxCell>
        <mxCell id="qMjwH2dMVCEwPad2tPBn-50" value="" style="whiteSpace=wrap;html=1;aspect=fixed;" vertex="1" parent="1">
          <mxGeometry x="759" y="310.3" width="15" height="15" as="geometry" />
        </mxCell>
        <mxCell id="qMjwH2dMVCEwPad2tPBn-51" value="L0" style="text;html=1;align=center;verticalAlign=middle;whiteSpace=wrap;rounded=0;" vertex="1" parent="1">
          <mxGeometry x="736.5" y="302.8" width="60" height="30" as="geometry" />
        </mxCell>
        <mxCell id="qMjwH2dMVCEwPad2tPBn-53" value="" style="endArrow=classic;html=1;rounded=0;" edge="1" parent="1">
          <mxGeometry width="50" height="50" relative="1" as="geometry">
            <mxPoint x="759" y="317.46" as="sourcePoint" />
            <mxPoint x="699" y="317.46" as="targetPoint" />
          </mxGeometry>
        </mxCell>
        <mxCell id="qMjwH2dMVCEwPad2tPBn-54" value="120.0.0.1/8&lt;div&gt;120.0.0.3/32&lt;/div&gt;" style="text;html=1;align=center;verticalAlign=middle;whiteSpace=wrap;rounded=0;" vertex="1" parent="1">
          <mxGeometry x="698.99" y="325.31" width="60" height="30" as="geometry" />
        </mxCell>
        <mxCell id="qMjwH2dMVCEwPad2tPBn-56" value="" style="endArrow=none;html=1;rounded=0;" edge="1" parent="1">
          <mxGeometry width="50" height="50" relative="1" as="geometry">
            <mxPoint x="849" y="242.93" as="sourcePoint" />
            <mxPoint x="1068.75" y="242.45999999999998" as="targetPoint" />
          </mxGeometry>
        </mxCell>
        <mxCell id="qMjwH2dMVCEwPad2tPBn-57" value="" style="rounded=0;whiteSpace=wrap;html=1;rotation=90;" vertex="1" parent="1">
          <mxGeometry x="1069.995" y="197.19500000000002" width="91.25" height="90.3" as="geometry" />
        </mxCell>
        <mxCell id="qMjwH2dMVCEwPad2tPBn-58" value="" style="endArrow=none;html=1;rounded=0;" edge="1" parent="1">
          <mxGeometry width="50" height="50" relative="1" as="geometry">
            <mxPoint x="850.62" y="317.46" as="sourcePoint" />
            <mxPoint x="970" y="317" as="targetPoint" />
          </mxGeometry>
        </mxCell>
        <mxCell id="qMjwH2dMVCEwPad2tPBn-59" value="REDINTDMZ" style="text;html=1;align=center;verticalAlign=middle;whiteSpace=wrap;rounded=0;" vertex="1" parent="1">
          <mxGeometry x="860" y="240" width="60" height="30" as="geometry" />
        </mxCell>
        <mxCell id="qMjwH2dMVCEwPad2tPBn-60" value="172.16.140.6" style="text;html=1;align=center;verticalAlign=middle;whiteSpace=wrap;rounded=0;" vertex="1" parent="1">
          <mxGeometry x="860" y="220.3" width="60" height="30" as="geometry" />
        </mxCell>
        <mxCell id="qMjwH2dMVCEwPad2tPBn-62" value="172.16.140.5" style="text;html=1;align=center;verticalAlign=middle;whiteSpace=wrap;rounded=0;" vertex="1" parent="1">
          <mxGeometry x="1000" y="220.3" width="60" height="30" as="geometry" />
        </mxCell>
        <mxCell id="qMjwH2dMVCEwPad2tPBn-63" value="" style="whiteSpace=wrap;html=1;aspect=fixed;" vertex="1" parent="1">
          <mxGeometry x="1069.99" y="234.85" width="15" height="15" as="geometry" />
        </mxCell>
        <mxCell id="qMjwH2dMVCEwPad2tPBn-64" value="" style="endArrow=none;html=1;rounded=0;" edge="1" parent="1">
          <mxGeometry width="50" height="50" relative="1" as="geometry">
            <mxPoint x="970" y="350" as="sourcePoint" />
            <mxPoint x="970" y="317.66" as="targetPoint" />
          </mxGeometry>
        </mxCell>
        <mxCell id="qMjwH2dMVCEwPad2tPBn-65" value="" style="shape=link;html=1;rounded=0;" edge="1" parent="1">
          <mxGeometry width="100" relative="1" as="geometry">
            <mxPoint x="910" y="350" as="sourcePoint" />
            <mxPoint x="1080" y="350" as="targetPoint" />
          </mxGeometry>
        </mxCell>
        <mxCell id="qMjwH2dMVCEwPad2tPBn-66" value="REDHOSTS" style="text;html=1;align=center;verticalAlign=middle;whiteSpace=wrap;rounded=0;" vertex="1" parent="1">
          <mxGeometry x="860" y="310.3" width="60" height="30" as="geometry" />
        </mxCell>
        <mxCell id="qMjwH2dMVCEwPad2tPBn-67" value="172.16.182.126/27" style="text;html=1;align=center;verticalAlign=middle;whiteSpace=wrap;rounded=0;" vertex="1" parent="1">
          <mxGeometry x="872.5" y="294.99" width="60" height="30" as="geometry" />
        </mxCell>
        <mxCell id="qMjwH2dMVCEwPad2tPBn-68" value=".97-127" style="text;html=1;align=center;verticalAlign=middle;whiteSpace=wrap;rounded=0;" vertex="1" parent="1">
          <mxGeometry x="910" y="324.99" width="60" height="30" as="geometry" />
        </mxCell>
        <mxCell id="qMjwH2dMVCEwPad2tPBn-69" value="172.16.182.96" style="text;html=1;align=center;verticalAlign=middle;whiteSpace=wrap;rounded=0;" vertex="1" parent="1">
          <mxGeometry x="1009.99" y="324.99" width="60" height="30" as="geometry" />
        </mxCell>
        <mxCell id="qMjwH2dMVCEwPad2tPBn-70" value="" style="endArrow=none;html=1;rounded=0;" edge="1" parent="1">
          <mxGeometry width="50" height="50" relative="1" as="geometry">
            <mxPoint x="920" y="390" as="sourcePoint" />
            <mxPoint x="920" y="350" as="targetPoint" />
          </mxGeometry>
        </mxCell>
        <mxCell id="qMjwH2dMVCEwPad2tPBn-71" value="" style="endArrow=none;html=1;rounded=0;" edge="1" parent="1">
          <mxGeometry width="50" height="50" relative="1" as="geometry">
            <mxPoint x="970" y="390" as="sourcePoint" />
            <mxPoint x="970" y="350" as="targetPoint" />
          </mxGeometry>
        </mxCell>
        <mxCell id="qMjwH2dMVCEwPad2tPBn-72" value="" style="endArrow=none;html=1;rounded=0;" edge="1" parent="1">
          <mxGeometry width="50" height="50" relative="1" as="geometry">
            <mxPoint x="1020" y="390" as="sourcePoint" />
            <mxPoint x="1020" y="350" as="targetPoint" />
          </mxGeometry>
        </mxCell>
        <mxCell id="qMjwH2dMVCEwPad2tPBn-73" value="" style="endArrow=none;html=1;rounded=0;" edge="1" parent="1">
          <mxGeometry width="50" height="50" relative="1" as="geometry">
            <mxPoint x="1070" y="390" as="sourcePoint" />
            <mxPoint x="1070" y="350" as="targetPoint" />
          </mxGeometry>
        </mxCell>
        <mxCell id="qMjwH2dMVCEwPad2tPBn-74" value="" style="ellipse;whiteSpace=wrap;html=1;aspect=fixed;" vertex="1" parent="1">
          <mxGeometry x="850" y="50" width="43" height="43" as="geometry" />
        </mxCell>
        <mxCell id="qMjwH2dMVCEwPad2tPBn-75" value="" style="ellipse;whiteSpace=wrap;html=1;aspect=fixed;" vertex="1" parent="1">
          <mxGeometry x="900" y="390" width="43" height="43" as="geometry" />
        </mxCell>
        <mxCell id="qMjwH2dMVCEwPad2tPBn-76" value="" style="ellipse;whiteSpace=wrap;html=1;aspect=fixed;" vertex="1" parent="1">
          <mxGeometry x="950" y="390" width="43" height="43" as="geometry" />
        </mxCell>
        <mxCell id="qMjwH2dMVCEwPad2tPBn-77" value="" style="ellipse;whiteSpace=wrap;html=1;aspect=fixed;" vertex="1" parent="1">
          <mxGeometry x="1000" y="390" width="43" height="43" as="geometry" />
        </mxCell>
        <mxCell id="qMjwH2dMVCEwPad2tPBn-78" value="" style="ellipse;whiteSpace=wrap;html=1;aspect=fixed;" vertex="1" parent="1">
          <mxGeometry x="1050" y="390" width="43" height="43" as="geometry" />
        </mxCell>
        <mxCell id="qMjwH2dMVCEwPad2tPBn-79" value=".106" style="text;html=1;align=center;verticalAlign=middle;whiteSpace=wrap;rounded=0;" vertex="1" parent="1">
          <mxGeometry x="890" y="396.5" width="60" height="30" as="geometry" />
        </mxCell>
        <mxCell id="qMjwH2dMVCEwPad2tPBn-80" value=".110" style="text;html=1;align=center;verticalAlign=middle;whiteSpace=wrap;rounded=0;" vertex="1" parent="1">
          <mxGeometry x="940" y="396.5" width="60" height="30" as="geometry" />
        </mxCell>
        <mxCell id="qMjwH2dMVCEwPad2tPBn-81" value=".114" style="text;html=1;align=center;verticalAlign=middle;whiteSpace=wrap;rounded=0;" vertex="1" parent="1">
          <mxGeometry x="990" y="396.5" width="60" height="30" as="geometry" />
        </mxCell>
        <mxCell id="qMjwH2dMVCEwPad2tPBn-82" value=".118" style="text;html=1;align=center;verticalAlign=middle;whiteSpace=wrap;rounded=0;" vertex="1" parent="1">
          <mxGeometry x="1041.5" y="396.5" width="60" height="30" as="geometry" />
        </mxCell>
      </root>
    </mxGraphModel>
  </diagram>
</mxfile>
